<?xml version="1.0" encoding="utf-8"?>
<!-- Generator: Adobe Illustrator 22.0.0, SVG Export Plug-In . SVG Version: 6.00 Build 0)  -->
<svg version="1.1" id="Layer_1" xmlns="http://www.w3.org/2000/svg" xmlns:xlink="http://www.w3.org/1999/xlink" x="0px" y="0px"
	 viewBox="0 0 157 75" style="enable-background:new 0 0 157 75;" xml:space="preserve">
<style type="text/css">
	.st0{display:none;fill:none;stroke:url(#SVGID_1_);stroke-width:4.3008;}
	.st1{fill:#29292E;}
	.st2{font-family:'Roboto-Black';}
	.st3{font-size:29.9297px;}
</style>
<linearGradient id="SVGID_1_" gradientUnits="userSpaceOnUse" x1="89.8938" y1="80.1154" x2="150.1046" y2="5.5684" gradientTransform="matrix(1 0 0 -1 0 76)">
	<stop  offset="0" style="stop-color:#485BFF"/>
	<stop  offset="1" style="stop-color:#FF59F8"/>
</linearGradient>
<path class="st0" d="M81.1,15.9V8.7c0-3.2,2.6-5.7,5.7-5.7h61.6c3.2,0,5.7,2.6,5.7,5.7v40.1c0,3.2-2.6,5.7-5.7,5.7h-10l3.4,15.7
	c0.3,1.4-1.3,2.3-2.4,1.4l-15.3-14.1H86.8c-3.2,0-5.7-2.6-5.7-5.7v-2.9"/>
<text transform="matrix(1 0 0 1 -0.6812 45.4287)" class="st1 st2 st3">previne</text>
<image style="overflow:visible;" width="1281" height="1898" xlink:href="../../../../../Downloads/logo-pps.png"  transform="matrix(3.892255e-02 0 0 3.892255e-02 100.1996 0.5625)">
</image>
</svg>
